<svg xmlns="http://www.w3.org/2000/svg" width="48" height="48" viewBox="0 0 48 48" fill="none">
  <path d="M24 30C27.3137 30 30 27.3137 30 24C30 20.6863 27.3137 18 24 18C20.6863 18 18 20.6863 18 24C18 27.3137 20.6863 30 24 30Z" stroke="#f2d28a" stroke-width="1.5" stroke-linecap="round"/>
  <path d="M39.5 24C39.5 24 38.8 26.5 37.5 28.5L33 30.5L30.5 35L28.5 37.5C26.5 38.8 24 39.5 24 39.5C24 39.5 21.5 38.8 19.5 37.5L17.5 33L13 30.5L10.5 28.5C9.2 26.5 8.5 24 8.5 24C8.5 24 9.2 21.5 10.5 19.5L15 17.5L17.5 13L19.5 10.5C21.5 9.2 24 8.5 24 8.5C24 8.5 26.5 9.2 28.5 10.5L30.5 15L35 17.5L37.5 19.5C38.8 21.5 39.5 24 39.5 24Z" stroke="#f2d28a" stroke-width="1.5" stroke-linecap="round" stroke-linejoin="round"/>
</svg>
